<svg width="42" height="41" viewBox="0 0 42 41" fill="none" xmlns="http://www.w3.org/2000/svg">
<g clip-path="url(#clip0_50_7)">
<path d="M42 20.4377C42 9.15024 32.598 0 21 0C9.40201 0 0 9.15024 0 20.4377C0 30.6385 7.67936 39.0938 17.7188 40.627V26.3454H12.3867V20.4377H17.7188V15.935C17.7188 10.8128 20.854 7.98346 25.6508 7.98346C27.9476 7.98346 30.3516 8.38263 30.3516 8.38263V13.4122H27.7036C25.095 13.4122 24.2812 14.9877 24.2812 16.6056V20.4377H30.1055L29.1744 26.3454H24.2812V40.627C34.3206 39.0938 42 30.6385 42 20.4377Z" fill="#5C5A17"/>
</g>
<defs>
<clipPath id="clip0_50_7">
<rect width="42" height="40.8753" fill="white"/>
</clipPath>
</defs>
</svg>
