<svg width="42" height="41" viewBox="0 0 42 41" fill="none" xmlns="http://www.w3.org/2000/svg">
<g clip-path="url(#clip0_50_9)">
<path fill-rule="evenodd" clip-rule="evenodd" d="M42 20.4377C42 31.7251 32.598 40.8753 21 40.8753C9.40202 40.8753 0 31.7251 0 20.4377C0 9.15025 9.40202 0 21 0C32.598 0 42 9.15025 42 20.4377ZM21.7525 15.088C19.71 15.9148 15.6277 17.6261 9.50581 20.2219C8.51171 20.6066 7.99095 20.983 7.94354 21.3511C7.86343 21.973 8.66375 22.2179 9.75358 22.5515C9.90182 22.5968 10.0554 22.6438 10.2129 22.6936C11.2851 23.0328 12.7274 23.4297 13.4773 23.4454C14.1574 23.4597 14.9165 23.1869 15.7546 22.6268C21.4745 18.8691 24.4272 16.9697 24.6125 16.9288C24.7433 16.8999 24.9246 16.8636 25.0473 16.9698C25.1701 17.076 25.1581 17.2772 25.1451 17.3311C25.0658 17.6601 21.9242 20.5026 20.2984 21.9735C19.7916 22.4321 19.4321 22.7574 19.3586 22.8316C19.194 22.9981 19.0262 23.1555 18.865 23.3068C17.8688 24.2413 17.1218 24.9421 18.9063 26.0866C19.7639 26.6366 20.4501 27.0914 21.1346 27.5451C21.8823 28.0406 22.628 28.5348 23.5928 29.1503C23.8386 29.3071 24.0734 29.47 24.3021 29.6287C25.1721 30.2324 25.9538 30.7747 26.9195 30.6882C27.4807 30.638 28.0603 30.1244 28.3547 28.5929C29.0504 24.9734 30.4179 17.1309 30.7339 13.8993C30.7616 13.6161 30.7267 13.2538 30.6988 13.0947C30.6708 12.9356 30.6123 12.709 30.3999 12.5412C30.1483 12.3425 29.7599 12.3006 29.5861 12.3036C28.7963 12.3172 27.5845 12.7272 21.7525 15.088Z" fill="#5C5A17"/>
</g>
<defs>
<clipPath id="clip0_50_9">
<rect width="42" height="40.8753" fill="white"/>
</clipPath>
</defs>
</svg>
